<svg xmlns="http://www.w3.org/2000/svg" version="1.1" xmlns:xlink="http://www.w3.org/1999/xlink" xmlns:svgjs="http://svgjs.dev/svgjs" width="1440" height="560" preserveAspectRatio="none" viewBox="0 0 1440 560"><g mask="url(&quot;#SvgjsMask1014&quot;)" fill="none"><path d="M232.62 77.93L297.57 115.43L297.57 190.43L232.62 227.93L167.67 190.43L167.67 115.43zM167.67 415.43L232.62 452.93L232.62 527.93L167.67 565.43L102.71 527.93L102.71 452.93zM232.62 527.93L297.57 565.43L297.57 640.43L232.62 677.93L167.67 640.43L167.67 565.43zM297.57 190.43L362.53 227.93L362.53 302.93L297.57 340.43L232.62 302.93L232.62 227.93zM427.48 -34.57L492.44 2.93L492.44 77.93L427.48 115.43L362.53 77.93L362.53 2.93zM427.48 190.43L492.44 227.93L492.44 302.93L427.48 340.43L362.53 302.93L362.53 227.93zM492.44 302.93L557.39 340.43L557.39 415.43L492.44 452.93L427.48 415.43L427.48 340.43zM557.39 -34.57L622.34 2.93L622.34 77.93L557.39 115.43L492.44 77.93L492.44 2.93zM622.34 77.93L687.3 115.43L687.3 190.43L622.34 227.93L557.39 190.43L557.39 115.43zM557.39 190.43L622.34 227.93L622.34 302.93L557.39 340.43L492.44 302.93L492.44 227.93zM687.3 415.43L752.25 452.93L752.25 527.93L687.3 565.43L622.34 527.93L622.34 452.93zM882.16 527.93L947.11 565.43L947.11 640.43L882.16 677.93L817.2 640.43L817.2 565.43zM947.11 415.43L1012.07 452.93L1012.07 527.93L947.11 565.43L882.16 527.93L882.16 452.93zM1141.97 77.93L1206.93 115.43L1206.93 190.43L1141.97 227.93L1077.02 190.43L1077.02 115.43zM1271.88 77.93L1336.83 115.43L1336.83 190.43L1271.88 227.93L1206.93 190.43L1206.93 115.43zM1401.79 77.93L1466.74 115.43L1466.74 190.43L1401.79 227.93L1336.84 190.43L1336.84 115.43zM1336.84 190.43L1401.79 227.93L1401.79 302.93L1336.84 340.43L1271.88 302.93L1271.88 227.93zM1336.84 415.43L1401.79 452.93L1401.79 527.93L1336.84 565.43L1271.88 527.93L1271.88 452.93zM1466.74 415.43L1531.7 452.93L1531.7 527.93L1466.74 565.43L1401.79 527.93L1401.79 452.93z" stroke="#03305d" stroke-width="2"></path><path d="M225.12 77.93 a7.5 7.5 0 1 0 15 0 a7.5 7.5 0 1 0 -15 0zM290.07 115.43 a7.5 7.5 0 1 0 15 0 a7.5 7.5 0 1 0 -15 0zM290.07 190.43 a7.5 7.5 0 1 0 15 0 a7.5 7.5 0 1 0 -15 0zM225.12 227.93 a7.5 7.5 0 1 0 15 0 a7.5 7.5 0 1 0 -15 0zM160.17 190.43 a7.5 7.5 0 1 0 15 0 a7.5 7.5 0 1 0 -15 0zM160.17 115.43 a7.5 7.5 0 1 0 15 0 a7.5 7.5 0 1 0 -15 0zM160.17 415.43 a7.5 7.5 0 1 0 15 0 a7.5 7.5 0 1 0 -15 0zM225.12 452.93 a7.5 7.5 0 1 0 15 0 a7.5 7.5 0 1 0 -15 0zM225.12 527.93 a7.5 7.5 0 1 0 15 0 a7.5 7.5 0 1 0 -15 0zM160.17 565.43 a7.5 7.5 0 1 0 15 0 a7.5 7.5 0 1 0 -15 0zM95.21 527.93 a7.5 7.5 0 1 0 15 0 a7.5 7.5 0 1 0 -15 0zM95.21 452.93 a7.5 7.5 0 1 0 15 0 a7.5 7.5 0 1 0 -15 0zM290.07 565.43 a7.5 7.5 0 1 0 15 0 a7.5 7.5 0 1 0 -15 0zM290.07 640.43 a7.5 7.5 0 1 0 15 0 a7.5 7.5 0 1 0 -15 0zM225.12 677.93 a7.5 7.5 0 1 0 15 0 a7.5 7.5 0 1 0 -15 0zM160.17 640.43 a7.5 7.5 0 1 0 15 0 a7.5 7.5 0 1 0 -15 0zM355.03 227.93 a7.5 7.5 0 1 0 15 0 a7.5 7.5 0 1 0 -15 0zM355.03 302.93 a7.5 7.5 0 1 0 15 0 a7.5 7.5 0 1 0 -15 0zM290.07 340.43 a7.5 7.5 0 1 0 15 0 a7.5 7.5 0 1 0 -15 0zM225.12 302.93 a7.5 7.5 0 1 0 15 0 a7.5 7.5 0 1 0 -15 0zM419.98 -34.57 a7.5 7.5 0 1 0 15 0 a7.5 7.5 0 1 0 -15 0zM484.94 2.93 a7.5 7.5 0 1 0 15 0 a7.5 7.5 0 1 0 -15 0zM484.94 77.93 a7.5 7.5 0 1 0 15 0 a7.5 7.5 0 1 0 -15 0zM419.98 115.43 a7.5 7.5 0 1 0 15 0 a7.5 7.5 0 1 0 -15 0zM355.03 77.93 a7.5 7.5 0 1 0 15 0 a7.5 7.5 0 1 0 -15 0zM355.03 2.93 a7.5 7.5 0 1 0 15 0 a7.5 7.5 0 1 0 -15 0zM419.98 190.43 a7.5 7.5 0 1 0 15 0 a7.5 7.5 0 1 0 -15 0zM484.94 227.93 a7.5 7.5 0 1 0 15 0 a7.5 7.5 0 1 0 -15 0zM484.94 302.93 a7.5 7.5 0 1 0 15 0 a7.5 7.5 0 1 0 -15 0zM419.98 340.43 a7.5 7.5 0 1 0 15 0 a7.5 7.5 0 1 0 -15 0zM549.89 340.43 a7.5 7.5 0 1 0 15 0 a7.5 7.5 0 1 0 -15 0zM549.89 415.43 a7.5 7.5 0 1 0 15 0 a7.5 7.5 0 1 0 -15 0zM484.94 452.93 a7.5 7.5 0 1 0 15 0 a7.5 7.5 0 1 0 -15 0zM419.98 415.43 a7.5 7.5 0 1 0 15 0 a7.5 7.5 0 1 0 -15 0zM549.89 -34.57 a7.5 7.5 0 1 0 15 0 a7.5 7.5 0 1 0 -15 0zM614.84 2.93 a7.5 7.5 0 1 0 15 0 a7.5 7.5 0 1 0 -15 0zM614.84 77.93 a7.5 7.5 0 1 0 15 0 a7.5 7.5 0 1 0 -15 0zM549.89 115.43 a7.5 7.5 0 1 0 15 0 a7.5 7.5 0 1 0 -15 0zM679.8 115.43 a7.5 7.5 0 1 0 15 0 a7.5 7.5 0 1 0 -15 0zM679.8 190.43 a7.5 7.5 0 1 0 15 0 a7.5 7.5 0 1 0 -15 0zM614.84 227.93 a7.5 7.5 0 1 0 15 0 a7.5 7.5 0 1 0 -15 0zM549.89 190.43 a7.5 7.5 0 1 0 15 0 a7.5 7.5 0 1 0 -15 0zM614.84 302.93 a7.5 7.5 0 1 0 15 0 a7.5 7.5 0 1 0 -15 0zM679.8 415.43 a7.5 7.5 0 1 0 15 0 a7.5 7.5 0 1 0 -15 0zM744.75 452.93 a7.5 7.5 0 1 0 15 0 a7.5 7.5 0 1 0 -15 0zM744.75 527.93 a7.5 7.5 0 1 0 15 0 a7.5 7.5 0 1 0 -15 0zM679.8 565.43 a7.5 7.5 0 1 0 15 0 a7.5 7.5 0 1 0 -15 0zM614.84 527.93 a7.5 7.5 0 1 0 15 0 a7.5 7.5 0 1 0 -15 0zM614.84 452.93 a7.5 7.5 0 1 0 15 0 a7.5 7.5 0 1 0 -15 0zM874.66 527.93 a7.5 7.5 0 1 0 15 0 a7.5 7.5 0 1 0 -15 0zM939.61 565.43 a7.5 7.5 0 1 0 15 0 a7.5 7.5 0 1 0 -15 0zM939.61 640.43 a7.5 7.5 0 1 0 15 0 a7.5 7.5 0 1 0 -15 0zM874.66 677.93 a7.5 7.5 0 1 0 15 0 a7.5 7.5 0 1 0 -15 0zM809.7 640.43 a7.5 7.5 0 1 0 15 0 a7.5 7.5 0 1 0 -15 0zM809.7 565.43 a7.5 7.5 0 1 0 15 0 a7.5 7.5 0 1 0 -15 0zM939.61 415.43 a7.5 7.5 0 1 0 15 0 a7.5 7.5 0 1 0 -15 0zM1004.57 452.93 a7.5 7.5 0 1 0 15 0 a7.5 7.5 0 1 0 -15 0zM1004.57 527.93 a7.5 7.5 0 1 0 15 0 a7.5 7.5 0 1 0 -15 0zM874.66 452.93 a7.5 7.5 0 1 0 15 0 a7.5 7.5 0 1 0 -15 0zM1134.47 77.93 a7.5 7.5 0 1 0 15 0 a7.5 7.5 0 1 0 -15 0zM1199.43 115.43 a7.5 7.5 0 1 0 15 0 a7.5 7.5 0 1 0 -15 0zM1199.43 190.43 a7.5 7.5 0 1 0 15 0 a7.5 7.5 0 1 0 -15 0zM1134.47 227.93 a7.5 7.5 0 1 0 15 0 a7.5 7.5 0 1 0 -15 0zM1069.52 190.43 a7.5 7.5 0 1 0 15 0 a7.5 7.5 0 1 0 -15 0zM1069.52 115.43 a7.5 7.5 0 1 0 15 0 a7.5 7.5 0 1 0 -15 0zM1264.38 77.93 a7.5 7.5 0 1 0 15 0 a7.5 7.5 0 1 0 -15 0zM1329.33 115.43 a7.5 7.5 0 1 0 15 0 a7.5 7.5 0 1 0 -15 0zM1329.33 190.43 a7.5 7.5 0 1 0 15 0 a7.5 7.5 0 1 0 -15 0zM1264.38 227.93 a7.5 7.5 0 1 0 15 0 a7.5 7.5 0 1 0 -15 0zM1394.29 77.93 a7.5 7.5 0 1 0 15 0 a7.5 7.5 0 1 0 -15 0zM1459.24 115.43 a7.5 7.5 0 1 0 15 0 a7.5 7.5 0 1 0 -15 0zM1459.24 190.43 a7.5 7.5 0 1 0 15 0 a7.5 7.5 0 1 0 -15 0zM1394.29 227.93 a7.5 7.5 0 1 0 15 0 a7.5 7.5 0 1 0 -15 0zM1329.34 190.43 a7.5 7.5 0 1 0 15 0 a7.5 7.5 0 1 0 -15 0zM1329.34 115.43 a7.5 7.5 0 1 0 15 0 a7.5 7.5 0 1 0 -15 0zM1394.29 302.93 a7.5 7.5 0 1 0 15 0 a7.5 7.5 0 1 0 -15 0zM1329.34 340.43 a7.5 7.5 0 1 0 15 0 a7.5 7.5 0 1 0 -15 0zM1264.38 302.93 a7.5 7.5 0 1 0 15 0 a7.5 7.5 0 1 0 -15 0zM1329.34 415.43 a7.5 7.5 0 1 0 15 0 a7.5 7.5 0 1 0 -15 0zM1394.29 452.93 a7.5 7.5 0 1 0 15 0 a7.5 7.5 0 1 0 -15 0zM1394.29 527.93 a7.5 7.5 0 1 0 15 0 a7.5 7.5 0 1 0 -15 0zM1329.34 565.43 a7.5 7.5 0 1 0 15 0 a7.5 7.5 0 1 0 -15 0zM1264.38 527.93 a7.5 7.5 0 1 0 15 0 a7.5 7.5 0 1 0 -15 0zM1264.38 452.93 a7.5 7.5 0 1 0 15 0 a7.5 7.5 0 1 0 -15 0zM1459.24 415.43 a7.5 7.5 0 1 0 15 0 a7.5 7.5 0 1 0 -15 0zM1524.2 452.93 a7.5 7.5 0 1 0 15 0 a7.5 7.5 0 1 0 -15 0zM1524.2 527.93 a7.5 7.5 0 1 0 15 0 a7.5 7.5 0 1 0 -15 0zM1459.24 565.43 a7.5 7.5 0 1 0 15 0 a7.5 7.5 0 1 0 -15 0z" fill="#03305d"></path><path d="M26.76 -19.5L70.06 5.5L70.06 55.5L26.76 80.5L-16.54 55.5L-16.54 5.5zM26.76 130.5L70.06 155.5L70.06 205.5L26.76 230.5L-16.54 205.5L-16.54 155.5zM70.06 505.5L113.37 530.5L113.37 580.5L70.06 605.5L26.76 580.5L26.76 530.5zM199.97 130.5L243.27 155.5L243.27 205.5L199.97 230.5L156.67 205.5L156.67 155.5zM199.97 280.5L243.27 305.5L243.27 355.5L199.97 380.5L156.67 355.5L156.67 305.5zM243.27 355.5L286.57 380.5L286.57 430.5L243.27 455.5L199.97 430.5L199.97 380.5zM199.97 430.5L243.27 455.5L243.27 505.5L199.97 530.5L156.67 505.5L156.67 455.5zM286.57 -19.5L329.88 5.5L329.88 55.5L286.57 80.5L243.27 55.5L243.27 5.5zM286.57 130.5L329.88 155.5L329.88 205.5L286.57 230.5L243.27 205.5L243.27 155.5zM286.57 280.5L329.88 305.5L329.88 355.5L286.57 380.5L243.27 355.5L243.27 305.5zM373.18 280.5L416.48 305.5L416.48 355.5L373.18 380.5L329.88 355.5L329.88 305.5zM416.48 355.5L459.79 380.5L459.79 430.5L416.48 455.5L373.18 430.5L373.18 380.5zM373.18 430.5L416.48 455.5L416.48 505.5L373.18 530.5L329.88 505.5L329.88 455.5zM503.09 55.5L546.39 80.5L546.39 130.5L503.09 155.5L459.79 130.5L459.79 80.5zM459.79 280.5L503.09 305.5L503.09 355.5L459.79 380.5L416.48 355.5L416.48 305.5zM546.39 -19.5L589.69 5.5L589.69 55.5L546.39 80.5L503.09 55.5L503.09 5.5zM546.39 280.5L589.69 305.5L589.69 355.5L546.39 380.5L503.09 355.5L503.09 305.5zM633 280.5L676.3 305.5L676.3 355.5L633 380.5L589.69 355.5L589.69 305.5zM676.3 355.5L719.6 380.5L719.6 430.5L676.3 455.5L633 430.5L633 380.5zM762.9 55.5L806.21 80.5L806.21 130.5L762.9 155.5L719.6 130.5L719.6 80.5zM762.9 205.5L806.21 230.5L806.21 280.5L762.9 305.5L719.6 280.5L719.6 230.5zM719.6 280.5L762.9 305.5L762.9 355.5L719.6 380.5L676.3 355.5L676.3 305.5zM719.6 430.5L762.9 455.5L762.9 505.5L719.6 530.5L676.3 505.5L676.3 455.5zM849.51 355.5L892.81 380.5L892.81 430.5L849.51 455.5L806.21 430.5L806.21 380.5zM849.51 505.5L892.81 530.5L892.81 580.5L849.51 605.5L806.21 580.5L806.21 530.5zM936.11 505.5L979.42 530.5L979.42 580.5L936.11 605.5L892.81 580.5L892.81 530.5zM1022.72 55.5L1066.02 80.5L1066.02 130.5L1022.72 155.5L979.42 130.5L979.42 80.5zM1066.02 430.5L1109.32 455.5L1109.32 505.5L1066.02 530.5L1022.72 505.5L1022.72 455.5zM1195.93 205.5L1239.23 230.5L1239.23 280.5L1195.93 305.5L1152.63 280.5L1152.63 230.5zM1239.23 430.5L1282.53 455.5L1282.53 505.5L1239.23 530.5L1195.93 505.5L1195.93 455.5zM1369.14 205.5L1412.44 230.5L1412.44 280.5L1369.14 305.5L1325.84 280.5L1325.84 230.5zM1455.74 505.5L1499.05 530.5L1499.05 580.5L1455.74 605.5L1412.44 580.5L1412.44 530.5z" stroke="rgba(6, 80, 156, 0.93)" stroke-width="2"></path></g><defs><mask id="SvgjsMask1014"><rect width="1440" height="560" fill="#ffffff"></rect></mask></defs></svg>